# xmcd
#
# Track frame offsets:
#	150
#	9628
#	19915
#	26735
#	36190
#	49778
#	58936
#	70220
#	87891
#	97365
#	108721
#	121629
#	131564
#	139237
#	149165
#	161711
#	175248
#	185676
#	196151
#	209879
#
# Disc length: 2953 seconds
#
# Revision: 0
# Processed by: cddbd v1.5.2PL0 Copyright (c) Steve Scherf et al.
# Submitted via: audiograbber 1.83.01
#
DISCID=3b0b8714
DTITLE=Various Artist - Western-Hits Vol. 12 [CD 2)
DYEAR=1999
DGENRE=Country
TTITLE0=Patsy Cline - I'm Moving Along
TTITLE1=Mickey Gilley - Down The Line [mono]
TTITLE2=Waylon Jennings - It's So Easy [mono]
TTITLE3=Johnny Paycheck - I'm Remembering
TTITLE4=Carl Perkins - Every Road [mono]
TTITLE5=Bill Monroe - Prison Song [mono]
TTITLE6=Burl Ives - Raindrops Keep Fallin' On My Head [mono]
TTITLE7=David Frizzell - No Way, José [live]
TTITLE8=Mickey Gilley - Fräulein [mono]
TTITLE9=Patsy Cline - I've Loved And Lost Again [mono]
TTITLE10=Ferlin Husky - Drunken Driver
TTITLE11=Jimmy Dean - Never Is A Long, Long Day
TTITLE12=Carl Perkins - Glad All Over [mono]
TTITLE13=Johnny Cash - Hey Porter [mono]
TTITLE14=Kenny Rogers - Love Woman
TTITLE15=Johnny Paycheck - I'm The Only Hell My Mama Ever Raised
TTITLE16=Mickey Gilley - Grapevine [mono]
TTITLE17=Merle Haggard - Ida Red [live] [mono]
TTITLE18=Carl Perkins - Georgia Court Room
TTITLE19=Patsy Cline - If I Could Only Stay Asleep [live]
EXTD=
EXTT0=
EXTT1=
EXTT2=
EXTT3=
EXTT4=
EXTT5=
EXTT6=
EXTT7=
EXTT8=
EXTT9=
EXTT10=
EXTT11=
EXTT12=
EXTT13=
EXTT14=
EXTT15=
EXTT16=
EXTT17=
EXTT18=
EXTT19=
PLAYORDER=
